<?xml version="1.0" standalone="no"?><!DOCTYPE svg PUBLIC "-//W3C//DTD SVG 1.1//EN" "http://www.w3.org/Graphics/SVG/1.1/DTD/svg11.dtd"><svg t="1502763872083" class="icon" style="" viewBox="0 0 1024 1024" version="1.1" xmlns="http://www.w3.org/2000/svg" p-id="1844" xmlns:xlink="http://www.w3.org/1999/xlink" width="16" height="16"><defs><style type="text/css"></style></defs><path d="M576.099364 41.240057C563.960636 33.378614 548.619605 30.798316 526.48267 30.798316 508.201217 30.798316 491.145433 35.346018 475.739646 43.668857L79.996544 234.533839C50.688977 251.248723 33.074703 278.774407 33.074703 309.764754 33.074703 340.35685 50.015224 366.457123 77.110903 383.404759L476.917146 577.388707C488.987061 585.216051 507.264879 589.656798 526.48267 589.656798 544.763649 589.656798 561.818966 585.108314 577.225694 576.784968L973.071065 384.020491C1002.275985 367.354243 1019.890634 339.828819 1019.890634 308.839148 1018.422441 277.555631 1001.412144 250.753249 974.863209 235.532195L944.903626 287.788431C953.933372 292.965371 959.26131 301.360364 959.690041 310.284403 959.65534 317.155239 954.396829 325.372423 944.902801 330.815945L549.722737 523.210055C541.75998 527.481545 534.485771 529.421504 526.48267 529.421504 517.892904 529.421504 510.634159 527.657931 506.113387 524.808385L106.218432 330.768735C98.407705 325.677893 93.309997 317.82385 93.309997 309.764754 93.309997 301.44789 98.567878 293.231443 108.061712 287.788431L503.140335 97.29334C511.203616 92.973222 518.47797 91.03361 526.48267 91.03361 538.074038 91.03361 544.069499 92.042021 546.854241 93.796959L946.695734 288.737199 973.071101 234.583427 576.099364 41.240057Z" p-id="1845"></path><path d="M501.703714 721.864957 514.72332 728.126024 527.755265 721.890677 990.578796 500.4453C1005.583258 493.266172 1011.92695 475.282814 1004.747824 460.278348 997.568693 445.273883 979.585337 438.930193 964.58087 446.109322L501.75734 667.554702 527.808891 667.580422 73.287883 449.003392C58.297624 441.794647 40.301774 448.10281 33.093028 463.09307 25.884283 478.083329 32.192446 496.079178 47.182705 503.287924L501.703714 721.864957Z" p-id="1846"></path><path d="M501.703714 859.545624 514.72332 865.806697 527.755265 859.571351 990.578796 638.125972C1005.583258 630.946846 1011.92695 612.963485 1004.747824 597.959021 997.568693 582.954554 979.585337 576.610865 964.58087 583.789994L501.75734 805.235375 527.808891 805.261095 73.287883 586.684065C58.297624 579.475319 40.301774 585.783482 33.093028 600.773742 25.884283 615.763998 32.192446 633.759852 47.182705 640.968596L501.703714 859.545624Z" p-id="1847"></path><path d="M501.703714 997.226297 514.72332 1003.487365 527.755265 997.252024 990.578796 775.806645C1005.583258 768.627513 1011.92695 750.644158 1004.747824 735.639691 997.568693 720.635229 979.585337 714.291537 964.58087 721.470669L501.75734 942.916042 527.808891 942.941768 73.287883 724.36474C58.297624 717.155991 40.301774 723.464156 33.093028 738.454414 25.884283 753.444671 32.192446 771.440526 47.182705 778.649269L501.703714 997.226297Z" p-id="1848"></path></svg>