<?xml version="1.0" standalone="no"?><!DOCTYPE svg PUBLIC "-//W3C//DTD SVG 1.1//EN" "http://www.w3.org/Graphics/SVG/1.1/DTD/svg11.dtd"><svg t="1502763929136" class="icon" style="" viewBox="0 0 1024 1024" version="1.1" xmlns="http://www.w3.org/2000/svg" p-id="2537" xmlns:xlink="http://www.w3.org/1999/xlink" width="16" height="16"><defs><style type="text/css"></style></defs><path d="M96.172363 374.548488l61.398372 0 0 558.353724-61.398372 0 0-558.353724ZM659.063427 374.548488l61.398372 0 0 558.353724-61.398372 0 0-558.353724ZM96.172363 327.473333l624.289436 0 0 61.398372-624.289436 0 0-61.398372ZM98.82068 871.50384l621.641119 0 0 61.398372-621.641119 0 0-61.398372ZM305.951157 137.140427l61.398372 0 0 202.611557-61.398372 0 0-202.611557ZM868.842221 137.140427l61.398372 0 0 558.353724-61.398372 0 0-558.353724ZM305.951157 90.065272l624.289436 0 0 61.398372-624.289436 0 0-61.398372ZM694.880167 634.094756l235.360426 0 0 61.398372-235.360426 0 0-61.398372Z" p-id="2538"></path></svg>